<svg xmlns="http://www.w3.org/2000/svg" viewBox="0 0 521.23 454.55"><defs><style>.cls-1{fill:#bdf7ff;}.cls-1,.cls-2,.cls-4{stroke:#231f20;stroke-miterlimit:10;}.cls-2{fill:#ffd460;}.cls-3,.cls-4{fill:#fff;}</style></defs><g id="Layer_2" data-name="Layer 2"><g id="ground--spring"><ellipse class="cls-1" cx="213.37" cy="135.76" rx="93.38" ry="151.13" transform="translate(-39.35 145.19) rotate(-34.6)"/><path class="cls-2" d="M424.73,322.62c2.18,67-106.15,125.86-197.1,129.18-78,2.85-181.11-33.72-191.3-95.27C25.33,290.1,125.66,213,222,206.35,314.31,200,422.58,256.82,424.73,322.62Z"/><path d="M161.21,451.23,121.1,436.61q-8.82-94.12-17.62-188.23l36.24-20.3Q150.46,339.65,161.21,451.23Z"/><path d="M234.42,451.44,189,454.55q-10.22-118.85-20.42-237.67l43.14-11.56Z"/><path d="M302.05,441.23l-40.58,6.95L238.07,202l24,3.69,17.28,2.65Z"/><path d="M369.81,411.34l-38.17,19.28h0L306.14,214l42.33,14.11Q359.15,319.72,369.81,411.34Z"/><path d="M93.71,422.85A135.54,135.54,0,0,1,43.16,383a95.92,95.92,0,0,1,4.59-84.25L75.11,271Z"/><circle class="cls-2" cx="438.22" cy="226.77" r="82.5"/><circle cx="424.76" cy="202.04" r="18.88"/><circle cx="482.05" cy="202.04" r="18.88"/><circle class="cls-3" cx="431.56" cy="195.37" r="6.67"/><circle class="cls-3" cx="492.22" cy="195.37" r="6.67"/><path class="cls-4" d="M492.09,244.19c1.93,4.94-18.32,23.84-40.88,22.42-19.78-1.26-36.37-17.83-34.38-22.54,1.37-3.22,10.83.54,34.38,1C479.16,245.57,490.73,240.73,492.09,244.19Z"/><rect x="424.76" y="89.97" width="6.13" height="70.47"/><circle cx="427.82" cy="77.36" r="12.61"/><rect x="457.05" y="93.05" width="6.13" height="70.47"/><circle cx="460.11" cy="80.44" r="12.61"/><rect x="6.39" y="342.77" width="33.23" height="14.2"/><ellipse class="cls-1" cx="132.34" cy="183.17" rx="93.38" ry="151.13" transform="translate(-93.39 172.81) rotate(-51.52)"/></g></g></svg>