<svg xmlns="http://www.w3.org/2000/svg" viewBox="0 0 806.41 461.05"><defs><style>.cls-1{fill:#4c3b20;}.cls-2{fill:#ffc166;}</style></defs><g id="Layer_2" data-name="Layer 2"><g id="ground--spring"><path class="cls-1" d="M516.69,94.31c28,21,33.48,80,9.2,112.12-43.41,57.46-174.38,19.36-260.57-5.72-32.52-9.46-72.21-21.28-71.55-34.52.8-16.24,61.37-16,170-44C463.2,96.55,492.06,75.8,516.69,94.31Z"/><path class="cls-2" d="M619.15,324.06c-65.73,52.22-150.25,39.73-177.06,34.36-3.27-.65-6-1.27-6.43-1.36C374.34,342.82,331.14,300.44,335,293.49c1.36-2.43,9-1.39,14,1.09,6.28,3.12,9.36,9,10.73,12.25,19.55,23.12,38.12,34.31,51.63,40.26,9.35,4.12,24.52,9.36,24.31,10,0,.1-.59.3-10.66-2.67-14-4.15-38.39-12-53.58-18.59-37-16-58.24-40.89-80.64-50.41-71.72-30.5-186.87,83.1-186.56,83.5.14.19,30.75-22.83,168.26-127.7,0,0,96.87-68.55,146-93.45,1.92-1,8.46-4.15,17.08-9.32,9.75-5.84,12.62-8.72,29.77-16.77,47.58-22.31,96.23-45.13,143.41-29,33.74,11.54,64.8,41.76,75.51,78.94C707.41,251.93,623.88,320.3,619.15,324.06Z"/><path class="cls-2" d="M579.47,47c-28.19,43.87-17.35,108.73,16.39,127.9,25.12,14.27,58.66.81,101-16.17a94.33,94.33,0,0,0,27.25-16.19c4-3.41,11-9.59,16.47-19,10.08-17.38,8.56-35.22,8-42.3-2.37-27.87-21-61.33-53.72-75C652.15-11.65,602.49,11.17,579.47,47Z"/><path d="M746.42,115a72.82,72.82,0,0,0,2.68-18.57,74.35,74.35,0,0,0-3.23-22.75l60.54,23.74Z"/><circle cx="692.98" cy="60.69" r="13.4"/><rect x="447.49" y="360.05" width="10.72" height="52.09"/><rect x="464.47" y="400.28" width="10.72" height="52.09" transform="translate(-161 493.77) rotate(-48.32)"/><rect x="458.96" y="446.92" width="34.86" height="4.6" transform="translate(-133.67 211.38) rotate(-22.02)"/><rect x="478.13" y="437.41" width="38.06" height="6.82" transform="translate(884.94 980.38) rotate(-167.27)"/><path d="M.07,402.73c3.73,12.38,137.27-25.42,266.85-93.34,110.45-57.9,191.49-123.77,187.57-131.29-2.44-4.67-43.48,18.08-51.13,8-6.54-8.65,18.12-32.47,13.91-37.11-7.89-8.71-104.61,63.28-188.54,118.31C83,362.82-2.78,393.27.07,402.73Z"/><path class="cls-1" d="M559.69,116.5c16.23,31.61-5.74,87.13-42.92,105.06-66.46,32-170-61.6-238.15-123.22-25.71-23.25-57-51.86-50.28-63.48,8.19-14.25,64,13.41,177.21,37.42C509.23,94.28,545.42,88.68,559.69,116.5Z"/><rect x="511.94" y="363.22" width="10.72" height="52.09"/><rect x="528.92" y="403.45" width="10.72" height="52.09" transform="translate(-141.77 542.97) rotate(-48.32)"/><rect x="523.41" y="450.09" width="34.86" height="4.6" transform="translate(-130.16 235.77) rotate(-22.02)"/><rect x="542.58" y="440.57" width="38.06" height="6.82" transform="translate(1011.55 1000.84) rotate(-167.27)"/></g></g></svg>