<svg xmlns="http://www.w3.org/2000/svg" viewBox="0 0 104.57 130.63"><defs><style>.cls-1{fill:#fff;stroke:#ffd250;stroke-miterlimit:10;stroke-width:13px;}.cls-2{fill:#ffe650;}.cls-3{fill:#ffd250;}.cls-4{fill:#fff073;}.cls-5{fill:#ff783c;}.cls-6{fill:#ff963c;}</style></defs><g id="Layer_2" data-name="Layer 2"><g id="Layer_1-2" data-name="Layer 1"><path class="cls-1" d="M52.29,78.35c5.46,21.91,4.15,37.44,0,50.27"/><path class="cls-2" d="M104.24,44.48a44.46,44.46,0,0,0-20.9-14.85,2.64,2.64,0,0,1-1.74-3A44.26,44.26,0,0,0,79.16,1.05a1.8,1.8,0,0,0-1.8-1A44.29,44.29,0,0,0,54,10.66a2.64,2.64,0,0,1-3.49,0A44.29,44.29,0,0,0,27.21,0a1.79,1.79,0,0,0-1.8,1A44.26,44.26,0,0,0,23,26.6a2.64,2.64,0,0,1-1.74,3A44.46,44.46,0,0,0,.33,44.48a1.8,1.8,0,0,0,0,2.08,44.37,44.37,0,0,0,20.9,14.86,2.63,2.63,0,0,1,1.74,3A44.3,44.3,0,0,0,25.41,90a1.83,1.83,0,0,0,1.8,1A44.35,44.35,0,0,0,50.54,80.38a2.64,2.64,0,0,1,3.49,0A44.35,44.35,0,0,0,77.36,91h.17a1.79,1.79,0,0,0,1.63-1A44.3,44.3,0,0,0,81.6,64.44a2.63,2.63,0,0,1,1.74-3,44.37,44.37,0,0,0,20.9-14.86A1.8,1.8,0,0,0,104.24,44.48Z"/><path class="cls-3" d="M83.34,61.42l.08,0L55.88,45.52,83.26,29.58a2.63,2.63,0,0,1-1.66-3,1.87,1.87,0,0,0,0-.25l-27.55,16V10.61l-.06.05a2.64,2.64,0,0,1-3.49,0l-.06-.05V42.4L23,26.54s0,0,0,.06a2.64,2.64,0,0,1-1.74,3l-.08,0L48.69,45.53,21.31,61.46a2.63,2.63,0,0,1,1.66,3c0,.09,0,.17,0,.25l27.55-16V80.43l.06-.05a2.64,2.64,0,0,1,3.49,0l.06.05V48.64L81.61,64.51s0-.05,0-.07A2.63,2.63,0,0,1,83.34,61.42Z"/><path class="cls-4" d="M84.74,43.72H55.41l14.66-25.4A1.8,1.8,0,0,0,67,16.52L52.29,41.92,37.62,16.52a1.8,1.8,0,0,0-3.12,1.8l14.66,25.4H19.83a1.81,1.81,0,0,0,0,3.61H49.16L34.5,72.73a1.79,1.79,0,0,0,.66,2.46,1.81,1.81,0,0,0,.9.24,1.79,1.79,0,0,0,1.56-.9l14.67-25.4L67,74.53a1.79,1.79,0,0,0,1.56.9,1.81,1.81,0,0,0,.9-.24,1.79,1.79,0,0,0,.66-2.46L55.41,47.33H84.74a1.81,1.81,0,0,0,0-3.61Z"/><path class="cls-5" d="M72.12,45.52c0,1.62-3.76,2.72-4.16,4.21s2.28,4.36,1.5,5.71-4.59.45-5.7,1.56-.19,4.91-1.56,5.7S58,60.79,56.49,61.2s-2.59,4.16-4.2,4.16-2.72-3.76-4.21-4.16-4.37,2.28-5.71,1.5-.45-4.59-1.56-5.7-4.91-.19-5.7-1.56,1.91-4.17,1.5-5.71-4.16-2.59-4.16-4.21,3.76-2.71,4.16-4.2S34.33,37,35.11,35.6s4.59-.44,5.7-1.55.19-4.91,1.56-5.7,4.17,1.91,5.71,1.5,2.59-4.16,4.21-4.16,2.71,3.76,4.2,4.15,4.37-2.27,5.72-1.49.44,4.59,1.55,5.7,4.91.19,5.7,1.55-1.91,4.18-1.5,5.72S72.12,43.91,72.12,45.52Z"/><path class="cls-6" d="M53.27,36.06l3.51-1.87A2.09,2.09,0,0,1,59.85,36l.14,4a2.07,2.07,0,0,0,1,1.7l3.37,2.11a2.09,2.09,0,0,1,0,3.55L61,49.4a2.09,2.09,0,0,0-1,1.71l-.14,4a2.09,2.09,0,0,1-3.07,1.77L53.27,55a2.08,2.08,0,0,0-2,0l-3.51,1.86a2.09,2.09,0,0,1-3.07-1.77l-.14-4a2.09,2.09,0,0,0-1-1.71l-3.37-2.1a2.09,2.09,0,0,1,0-3.55l3.37-2.11a2.07,2.07,0,0,0,1-1.7l.14-4a2.09,2.09,0,0,1,3.07-1.78l3.51,1.87A2.08,2.08,0,0,0,53.27,36.06Z"/><circle class="cls-2" cx="52.29" cy="45.52" r="3.61"/></g></g></svg>