<svg xmlns="http://www.w3.org/2000/svg" viewBox="0 0 171.98 448.44"><defs><style>.cls-1{fill:#faff39;}.cls-2,.cls-3,.cls-4,.cls-5{fill:none;stroke-miterlimit:10;}.cls-2,.cls-5{stroke:#603813;}.cls-2{stroke-width:3px;}.cls-3{stroke:#8c6239;}.cls-3,.cls-4{stroke-width:2px;}.cls-4{stroke:#a67c52;}.cls-5{stroke-width:4px;}</style></defs><g id="Layer_2" data-name="Layer 2"><g id="ground--spring"><path class="cls-1" d="M25.68,130.24C36.27,92.39,55.16,70.6,82.26,39.34,100.36,18.48,117.09,5.43,138.19,0l.11,0,.13.15c5.18,5.83,17.92,21.56,25.62,54.71,14,60.46,5.14,102.52,5.14,102.52-11.67,55.06-43.12,87.85-59.36,104.77-17.31,18.05-34.77,36.26-51.57,32-17.66-4.47-24.47-31.19-30.8-56C21.68,215.5,12.48,177.39,25.68,130.24Z"/><line class="cls-2" x1="129.85" y1="50.36" x2="54.02" y2="294.99"/><line class="cls-3" x1="111.56" y1="110.09" x2="97.08" y2="56.49"/><line class="cls-3" x1="149.99" y1="72.07" x2="111.56" y2="110.09"/><line class="cls-3" x1="81.54" y1="92.42" x2="96.98" y2="154.65"/><line class="cls-3" x1="96.3" y1="155.64" x2="138.41" y2="107.45"/><line class="cls-3" x1="80.55" y1="200.1" x2="142.56" y2="145.26"/><line class="cls-3" x1="59.9" y1="123.53" x2="81.53" y2="195.54"/><line class="cls-3" x1="71.47" y1="233.63" x2="137.17" y2="185.53"/><line class="cls-3" x1="40.44" y1="165.31" x2="70.98" y2="231.89"/><line class="cls-3" x1="37.94" y1="214.28" x2="63.13" y2="266.72"/><line class="cls-4" x1="63.13" y1="266.72" x2="115.38" y2="223.47"/><line class="cls-5" x1="58.95" y1="294.52" x2="1.87" y2="447.74"/></g></g></svg>