<svg xmlns="http://www.w3.org/2000/svg" viewBox="0 0 1285.08 584.68"><defs><style>.cls-1{fill:#718355;}.cls-2{fill:#87986a;}.cls-3{fill:#97a97c;}.cls-4{fill:#9b521c;}.cls-5{fill:#9e661b;}.cls-6{fill:#b5c99a;}.cls-7{fill:#fff;stroke:#ffd250;stroke-miterlimit:10;stroke-width:13px;}.cls-8{fill:#ffe650;}.cls-9{fill:#ffd250;}.cls-10{fill:#fff073;}.cls-11{fill:#ff783c;}.cls-12{fill:#ff963c;}</style></defs><g id="Layer_2" data-name="Layer 2"><g id="hill3--spring"><path class="cls-1" d="M885.28,490.49a223.57,223.57,0,0,1-10.82,68.86H410.63a224.24,224.24,0,0,1,18-178.82C469.58,307.58,550,258,642.55,258c115.25,0,211.74,76.94,236.54,180.11A223.79,223.79,0,0,1,885.28,490.49Z"/></g><g id="hill2--spring"><path class="cls-2" d="M1146.93,551.84H630.77c11.28-27.27,33.56-51.8,63.76-71.69,48.61-32,117.69-52,194.32-52q10.83,0,21.46.53C1025,434.29,1119.22,484.85,1146.93,551.84Z"/></g><g id="hill1--spring"><path class="cls-3" d="M723.91,551.84H138.15C150.63,451.18,277,372.09,431,372.09q14.6,0,28.82.93c103.17,6.7,190.71,49,234.69,108.26C710.56,502.85,720.8,526.67,723.91,551.84Z"/></g><g id="tree3-spring"><rect class="cls-4" x="966.97" y="389.82" width="40.51" height="144.19"/><rect class="cls-5" x="987.22" y="389.82" width="20.25" height="144.19"/><path class="cls-3" d="M987.22,86.48V481.21A116.29,116.29,0,0,1,930,263.67,71.51,71.51,0,0,1,956.94,156a41.36,41.36,0,0,1,30.28-69.53Z"/><path class="cls-6" d="M987.22,86.48V481.21a116.29,116.29,0,0,0,57.2-217.54A71.51,71.51,0,0,0,1017.5,156a41.36,41.36,0,0,0-30.28-69.53Z"/><circle class="cls-1" cx="941.5" cy="416.71" r="7.03"/><circle class="cls-1" cx="916.2" cy="377.34" r="7.03"/><circle class="cls-1" cx="962.22" cy="377.34" r="7.03"/><circle class="cls-1" cx="938.32" cy="329.21" r="7.03"/><circle class="cls-1" cx="962.22" cy="311.08" r="7.03"/><circle class="cls-1" cx="976.28" cy="261.25" r="7.03"/><circle class="cls-1" cx="945.35" cy="237.82" r="7.03"/><circle class="cls-1" cx="976.28" cy="185.95" r="7.03"/><circle class="cls-1" cx="976.28" cy="130.8" r="7.03"/><circle class="cls-1" cx="1017.7" cy="183.51" r="7.03"/><circle class="cls-1" cx="1006.42" cy="227.55" r="7.03"/><circle class="cls-1" cx="1034.17" cy="280.15" r="7.03"/><circle class="cls-1" cx="1006.42" cy="317.02" r="7.03"/><circle class="cls-1" cx="1073.21" cy="333.27" r="7.03"/><circle class="cls-1" cx="1010.67" cy="365.28" r="7.03"/><circle class="cls-1" cx="1051.44" cy="409.68" r="7.03"/><circle class="cls-1" cx="1003.64" cy="447.73" r="7.03"/></g><g id="tree2--spring"><rect class="cls-4" x="622.29" y="322.23" width="40.51" height="211.78"/><rect class="cls-5" x="642.54" y="322.23" width="20.25" height="211.78"/><polyline class="cls-6" points="642.54 141.24 642.54 0 736.28 144.6 704.71 144.6 766.88 236.29 701.88 236.29 785.92 370.91 642.54 370.91 642.54 144.6"/><polyline class="cls-3" points="642.54 141.24 642.54 0 548.8 144.6 580.37 144.6 518.2 236.29 583.2 236.29 499.16 370.91 642.54 370.91 642.54 141.24"/><polygon class="cls-1" points="568.14 350.14 555.21 350.14 561.67 337.21 561.67 337.21 568.14 350.14"/><polygon class="cls-1" points="612.56 319.5 599.63 319.5 606.1 306.57 606.1 306.57 612.56 319.5"/><polygon class="cls-1" points="628.75 359.84 615.82 359.84 622.29 346.92 622.29 346.92 628.75 359.84"/><polygon class="cls-1" points="591.99 279.33 579.06 279.33 585.52 266.4 585.52 266.4 591.99 279.33"/><polygon class="cls-1" points="628.75 246.14 615.82 246.14 622.29 233.21 622.29 233.21 628.75 246.14"/><polygon class="cls-1" points="641.68 176.69 628.75 176.69 635.22 163.76 635.22 163.76 641.68 176.69"/><polygon class="cls-1" points="577.31 206.31 564.38 206.31 570.85 193.38 570.85 193.38 577.31 206.31"/><polygon class="cls-1" points="622.29 132.44 609.36 132.44 615.82 119.51 615.82 119.51 622.29 132.44"/><polygon class="cls-1" points="598.45 116.61 585.52 116.61 591.99 103.68 591.99 103.68 598.45 116.61"/><polygon class="cls-1" points="630.77 77.63 617.84 77.63 624.3 64.7 624.3 64.7 630.77 77.63"/><polygon class="cls-1" points="669.26 92.94 656.33 92.94 662.79 80.01 662.79 80.01 669.26 92.94"/><polygon class="cls-1" points="699.98 174.04 687.05 174.04 693.52 161.12 693.52 161.12 699.98 174.04"/><polygon class="cls-1" points="669.26 152.03 656.33 152.03 662.79 139.1 662.79 139.1 669.26 152.03"/><polygon class="cls-1" points="679.21 238.98 666.28 238.98 672.74 226.05 672.74 226.05 679.21 238.98"/><polygon class="cls-1" points="714.23 222.02 701.3 222.02 707.77 209.09 707.77 209.09 714.23 222.02"/><polygon class="cls-1" points="679.21 296.54 666.28 296.54 672.74 283.61 672.74 283.61 679.21 296.54"/><polygon class="cls-1" points="720.7 328.69 707.77 328.69 714.23 315.77 714.23 315.77 720.7 328.69"/><polygon class="cls-1" points="675.72 353.38 662.79 353.38 669.26 340.45 669.26 340.45 675.72 353.38"/><polygon class="cls-1" points="750.26 359.84 737.33 359.84 743.79 346.92 743.79 346.92 750.26 359.84"/></g><g id="tree1--spring"><rect class="cls-4" x="277.61" y="389.82" width="40.51" height="144.19"/><rect class="cls-5" x="297.86" y="389.82" width="20.25" height="144.19"/><circle class="cls-3" cx="297.86" cy="272.87" r="134.96"/><circle class="cls-6" cx="320.24" cy="250.49" r="89.37"/></g><g id="flower--spring"><path class="cls-7" d="M818.82,491.74c5.46,21.9,4.15,37.43,0,50.27"/><path class="cls-8" d="M870.77,457.87A44.44,44.44,0,0,0,849.87,443a2.63,2.63,0,0,1-1.74-3,44.3,44.3,0,0,0-2.44-25.56,1.83,1.83,0,0,0-1.8-1,44.35,44.35,0,0,0-23.33,10.66,2.64,2.64,0,0,1-3.49,0,44.35,44.35,0,0,0-23.33-10.66,1.81,1.81,0,0,0-1.8,1A44.3,44.3,0,0,0,789.5,440a2.63,2.63,0,0,1-1.74,3,44.44,44.44,0,0,0-20.9,14.86,1.8,1.8,0,0,0,0,2.08,44.46,44.46,0,0,0,20.9,14.85,2.64,2.64,0,0,1,1.74,3,44.26,44.26,0,0,0,2.44,25.55,1.81,1.81,0,0,0,1.8,1,44.29,44.29,0,0,0,23.33-10.65,2.64,2.64,0,0,1,3.49,0,44.29,44.29,0,0,0,23.33,10.65h.17a1.79,1.79,0,0,0,1.63-1.05,44.26,44.26,0,0,0,2.44-25.55,2.64,2.64,0,0,1,1.74-3A44.46,44.46,0,0,0,870.77,460,1.8,1.8,0,0,0,870.77,457.87Z"/><path class="cls-9" d="M849.87,474.8l.08,0L822.41,458.9,849.79,443a2.63,2.63,0,0,1-1.66-3c0-.09,0-.17,0-.25l-27.55,16V424l-.06.05a2.64,2.64,0,0,1-3.49,0L817,424v31.79l-27.52-15.87s0,.05,0,.07a2.63,2.63,0,0,1-1.74,3l-.08,0,27.54,15.88-27.38,15.93a2.63,2.63,0,0,1,1.66,3,1.87,1.87,0,0,0,0,.25L817,462v31.78l.06-.05a2.64,2.64,0,0,1,3.49,0l.06.05V462l27.52,15.87s0,0,0-.07A2.64,2.64,0,0,1,849.87,474.8Z"/><path class="cls-10" d="M851.27,457.11H821.94L836.6,431.7a1.8,1.8,0,0,0-3.12-1.8l-14.66,25.4-14.67-25.4a1.8,1.8,0,1,0-3.12,1.8l14.66,25.41H786.36a1.8,1.8,0,0,0,0,3.6h29.33L801,486.11a1.8,1.8,0,1,0,3.12,1.81l14.67-25.41,14.66,25.4a1.8,1.8,0,1,0,3.12-1.8l-14.66-25.4h29.33a1.8,1.8,0,1,0,0-3.6Z"/><path class="cls-11" d="M838.65,458.91c0,1.61-3.76,2.71-4.16,4.2s2.28,4.37,1.5,5.72-4.59.44-5.7,1.55-.19,4.91-1.56,5.71-4.17-1.92-5.71-1.5-2.59,4.15-4.2,4.15-2.72-3.76-4.21-4.15-4.37,2.28-5.71,1.5-.45-4.6-1.56-5.71-4.91-.18-5.7-1.55,1.91-4.18,1.5-5.72-4.16-2.59-4.16-4.2,3.76-2.72,4.16-4.2-2.28-4.37-1.5-5.72,4.59-.45,5.7-1.56.19-4.91,1.56-5.7,4.17,1.91,5.71,1.5,2.59-4.15,4.21-4.15,2.71,3.75,4.2,4.15,4.37-2.28,5.71-1.5.45,4.59,1.56,5.7,4.91.19,5.7,1.56-1.91,4.18-1.5,5.72S838.65,457.29,838.65,458.91Z"/><path class="cls-12" d="M819.8,449.45l3.51-1.87a2.09,2.09,0,0,1,3.07,1.77l.14,4a2.09,2.09,0,0,0,1,1.7l3.37,2.1a2.09,2.09,0,0,1,0,3.55l-3.37,2.11a2.09,2.09,0,0,0-1,1.7l-.14,4a2.09,2.09,0,0,1-3.07,1.78l-3.51-1.87a2.08,2.08,0,0,0-2,0l-3.51,1.87a2.09,2.09,0,0,1-3.07-1.78l-.14-4a2.09,2.09,0,0,0-1-1.7l-3.37-2.11a2.09,2.09,0,0,1,0-3.55l3.37-2.1a2.09,2.09,0,0,0,1-1.7l.14-4a2.09,2.09,0,0,1,3.07-1.77l3.51,1.87A2.14,2.14,0,0,0,819.8,449.45Z"/><circle class="cls-8" cx="818.82" cy="458.91" r="3.61"/></g><g id="ground--spring"><rect class="cls-6" y="534.01" width="1285.08" height="50.67" rx="25.33"/></g></g></svg>