<svg xmlns="http://www.w3.org/2000/svg" viewBox="0 0 859.8 980.03"><defs><style>.cls-1{fill:#46a5dc;}</style></defs><g id="Layer_2" data-name="Layer 2"><g id="ground--spring"><path class="cls-1" d="M460.53,961.34A34.85,34.85,0,0,1,428.35,980c-19.33-.86-28.68-17.91-29.08-18.66V18.66a34.47,34.47,0,0,1,61.26,0Z"/><path class="cls-1" d="M460,226.26l-38.22-46.17L539.69,82.48c18.18-5.15,36,3,41.85,16.88s-2.73,27.88-3.63,29.29Z"/><path class="cls-1" d="M442.25,183.75l-39.43,45.13L287.55,128.14c-8-17.11-2.77-36,9.94-44s28-1.78,29.5-1.11Z"/><path class="cls-1" d="M851.6,702.83a34.83,34.83,0,0,1-.25,37.2c-10.56,16.21-30,15.62-30.84,15.58L8.25,277.22a34.47,34.47,0,0,1,31.08-52.79Z"/><path class="cls-1" d="M217,343.5l-59.12,9.85-25.16-151c4.68-18.3,20.71-29.59,35.62-27.7S191,191,191.81,192.5Q204.38,268,217,343.5Z"/><path class="cls-1" d="M172.12,324.58,192.22,381,48,432.38C29.17,431,15.23,417.2,14.47,402.19s12.11-25.25,13.44-26.27Z"/><path class="cls-1" d="M689.27,655.51l-20.58-56.28,143.77-52.57c18.85,1.23,32.91,14.91,33.79,29.9S834.36,601.92,833,603Z"/><path class="cls-1" d="M640.71,645.57l59.14-9.69L724.59,787c-4.73,18.29-20.8,29.54-35.69,27.61s-22.69-16.43-23.45-17.92Q653.08,721.1,640.71,645.57Z"/><path class="cls-1" d="M35.77,750.44A34.8,34.8,0,0,1,3.6,731.76c-8.84-17.21,1.33-33.79,1.78-34.5L823.87,229.6a34.47,34.47,0,0,1,30.39,53.19Z"/><path class="cls-1" d="M700.65,353l-59.24-9.09L664.64,192.6c10.16-15.93,28.92-21.65,42.49-15.2s16.49,22.64,16.75,24.29Q712.27,277.35,700.65,353Z"/><path class="cls-1" d="M669.37,383.33l20.92-56.17L833.74,380.6c13.54,13.18,15.33,32.71,6.27,44.69s-25.52,11.55-27.19,11.47Z"/><path class="cls-1" d="M191.43,595.13l-17.75,57.24L27.46,607.05c-14.25-12.4-17.14-31.8-8.76-44.27s24.83-13,26.51-13Z"/><path class="cls-1" d="M159.3,634l58.93,10.92L190.35,795.39c-10.65,15.61-29.57,20.75-42.93,13.88s-15.79-23.14-16-24.8Q145.37,709.21,159.3,634Z"/><path class="cls-1" d="M404,755.62l38.21,46.17L324.33,899.4c-18.18,5.15-36-3-41.85-16.88s2.73-27.88,3.64-29.29Z"/><path class="cls-1" d="M415.35,802.38,453,755.72,572.14,851.8c8.67,16.78,4.2,35.87-8.19,44.37s-27.86,2.89-29.42,2.28Z"/><path class="cls-1" d="M453.3,374.9l-38.21-46.17L533,231.12c18.18-5.15,36,3,41.85,16.88s-2.73,27.88-3.63,29.29Z"/><path class="cls-1" d="M429.9,319l-32.38,50.43L268.71,286.67c-10.43-15.75-8-35.21,3.37-45s27.39-5.87,29-5.44Z"/><path class="cls-1" d="M331.26,417.71l-59.77,4.4L260.23,269.45c6.34-17.8,23.34-27.58,38-24.34S319.38,263.49,320,265Q325.64,341.38,331.26,417.71Z"/><path class="cls-1" d="M567.4,421.86l-59.82-3.72,9.5-152.78c8.69-16.78,26.85-24.17,40.95-19s18.46,21.06,18.87,22.69Q572.15,345.48,567.4,421.86Z"/><path class="cls-1" d="M295.07,388.23l29.36,52.25L191,515.49c-18.81,1.82-34.88-9.42-38.17-24.08s7.66-26.94,8.8-28.17Z"/><path class="cls-1" d="M353.59,516.06l-20.92,56.17L180,515.35c-14.57-13.57-16.88-33.28-7.56-45.17s26.72-11.1,28.49-11Z"/><path class="cls-1" d="M536.48,571.81l-20.12-56.46L660.56,464c18.84,1.38,32.78,15.17,33.55,30.17s-12.1,25.27-13.43,26.28Z"/><path class="cls-1" d="M531.61,458.28l24.14-54.86L695.86,465.1c12.75,13.94,13.41,33.54,3.66,45s-26.14,10.05-27.81,9.88Z"/><path class="cls-1" d="M283.62,559.59l58.31,13.35L301.68,748.75c-12,18.16-31.39,24-44.25,15.82s-14-27.22-14.06-29.17Q263.5,647.5,283.62,559.59Z"/><path class="cls-1" d="M402.94,581.39l39.7,44.9L297.47,754.68c-21.44,8.78-41.21,2.67-46.65-11.72s5.78-31.46,6.95-33.18Z"/><path class="cls-1" d="M403.94,612.67l42.61-42.15L582.83,708.3c10,20.92,5,41-9.1,47.24s-31.73-4-33.51-5.09Q472.08,681.56,403.94,612.67Z"/><path class="cls-1" d="M496.18,556.52l58.95-10.17,30.68,177.72c-4,21.37-19.71,34.24-34.73,31.67S527.69,736,526.86,734.25Q511.53,645.39,496.18,556.52Z"/></g></g></svg>