<svg xmlns="http://www.w3.org/2000/svg" viewBox="0 0 1082.52 1057.67"><defs><style>.cls-1{fill:#fcfc4c;}.cls-2{fill:#f9dc4e;}</style></defs><g id="Layer_2" data-name="Layer 2"><g id="ground--spring"><path class="cls-1" d="M86.36,837.13l261.42-243,51.53,70.69Z"/><path class="cls-1" d="M298.2,869.52q39.36-107.49,78.71-215L449.45,697Z"/><path class="cls-1" d="M395.16,1057.67l45.9-354,84.8,21.47Q460.51,891.42,395.16,1057.67Z"/><path class="cls-1" d="M570.46,935.84,528.07,715.62h87.48Z"/><path class="cls-1" d="M105.25,605.2l241.14-69.46,10,79.75Z"/><path class="cls-1" d="M0,451.21l356.83,8.57-12.47,86.59Z"/><path class="cls-1" d="M138.07,300.76,388,401.07l-50.71,81.69Z"/><path class="cls-1" d="M229.39,149.09,431.16,360.21l-82.28,55.91Z"/><path class="cls-1" d="M352.94,34.71l142,300.35L407.8,362.77Q380.37,198.75,352.94,34.71Z"/><path class="cls-1" d="M521.24,81.41l67.53,246.2L484.43,334.7Z"/><path class="cls-1" d="M672.59,0q-14.16,177.9-28.33,355.8L558.5,338.55Z"/><path class="cls-1" d="M791.36,211.82,698.78,403.59l-72-55.72Z"/><path class="cls-1" d="M1010.67,228.37l-273.81,229-47.75-73.29Z"/><path class="cls-1" d="M950.94,453.31,735.65,530.83,722.1,437Z"/><path class="cls-1" d="M1082.52,622.68l-356-25.19L743,511.59Z"/><path class="cls-1" d="M869.34,758l-201.8-95.8,58.17-76.11Z"/><path class="cls-1" d="M866.26,967.08l-251.76-253,68.9-53.9Z"/><ellipse class="cls-2" cx="536.6" cy="523.03" rx="203.78" ry="215.33"/></g></g></svg>