<svg xmlns="http://www.w3.org/2000/svg" viewBox="0 0 286.76 534.01"><defs><style>.cls-1{fill:#9b521c;}.cls-2{fill:#9e661b;}.cls-3{fill:#b5c99a;}.cls-4{fill:#97a97c;}.cls-5{fill:#718355;}</style></defs><g id="Layer_2" data-name="Layer 2"><g id="Layer_1-2" data-name="Layer 1"><rect class="cls-1" x="123.13" y="322.23" width="40.51" height="211.78"/><rect class="cls-2" x="143.38" y="322.23" width="20.25" height="211.78"/><polyline class="cls-3" points="143.38 141.24 143.38 0 237.12 144.6 205.55 144.6 267.72 236.29 202.72 236.29 286.76 370.91 143.38 370.91 143.38 144.6"/><polyline class="cls-4" points="143.38 141.24 143.38 0 49.64 144.6 81.21 144.6 19.04 236.29 84.04 236.29 0 370.91 143.38 370.91 143.38 141.24"/><polygon class="cls-5" points="68.98 350.14 56.05 350.14 62.51 337.21 62.51 337.21 68.98 350.14"/><polygon class="cls-5" points="113.4 319.5 100.47 319.5 106.94 306.57 106.94 306.57 113.4 319.5"/><polygon class="cls-5" points="129.59 359.84 116.66 359.84 123.13 346.92 123.13 346.92 129.59 359.84"/><polygon class="cls-5" points="92.83 279.33 79.9 279.33 86.36 266.4 86.36 266.4 92.83 279.33"/><polygon class="cls-5" points="129.59 246.14 116.66 246.14 123.13 233.21 123.13 233.21 129.59 246.14"/><polygon class="cls-5" points="142.52 176.69 129.59 176.69 136.06 163.76 136.06 163.76 142.52 176.69"/><polygon class="cls-5" points="78.16 206.31 65.23 206.31 71.69 193.38 71.69 193.38 78.16 206.31"/><polygon class="cls-5" points="123.13 132.44 110.2 132.44 116.66 119.51 116.66 119.51 123.13 132.44"/><polygon class="cls-5" points="99.29 116.61 86.36 116.61 92.83 103.68 92.83 103.68 99.29 116.61"/><polygon class="cls-5" points="131.61 77.63 118.68 77.63 125.15 64.7 125.15 64.7 131.61 77.63"/><polygon class="cls-5" points="170.1 92.94 157.17 92.94 163.63 80.01 163.63 80.01 170.1 92.94"/><polygon class="cls-5" points="200.83 174.04 187.9 174.04 194.36 161.12 194.36 161.12 200.83 174.04"/><polygon class="cls-5" points="170.1 152.03 157.17 152.03 163.63 139.1 163.63 139.1 170.1 152.03"/><polygon class="cls-5" points="180.05 238.98 167.12 238.98 173.58 226.05 173.58 226.05 180.05 238.98"/><polygon class="cls-5" points="215.07 222.02 202.14 222.02 208.61 209.09 208.61 209.09 215.07 222.02"/><polygon class="cls-5" points="180.05 296.54 167.12 296.54 173.58 283.61 173.58 283.61 180.05 296.54"/><polygon class="cls-5" points="221.54 328.69 208.61 328.69 215.07 315.77 215.07 315.77 221.54 328.69"/><polygon class="cls-5" points="176.56 353.38 163.63 353.38 170.1 340.45 170.1 340.45 176.56 353.38"/><polygon class="cls-5" points="251.1 359.84 238.17 359.84 244.64 346.92 244.64 346.92 251.1 359.84"/></g></g></svg>