<svg xmlns="http://www.w3.org/2000/svg" viewBox="0 0 232.56 447.54"><defs><style>.cls-1{fill:#9b521c;}.cls-2{fill:#9e661b;}.cls-3{fill:#00d122;}.cls-4{fill:#01dd1a;}.cls-5{fill:#00a510;}</style></defs><g id="Layer_2" data-name="Layer 2"><g id="tree3-spring"><rect class="cls-1" x="96.03" y="303.34" width="40.51" height="144.19"/><rect class="cls-2" x="116.28" y="303.34" width="20.25" height="144.19"/><path class="cls-3" d="M116.28,0V394.73a116.29,116.29,0,0,1-57.2-217.54A71.51,71.51,0,0,1,86,69.53,41.36,41.36,0,0,1,116.28,0Z"/><path class="cls-4" d="M116.28,0V394.73a116.29,116.29,0,0,0,57.2-217.54A71.51,71.51,0,0,0,146.56,69.53,41.36,41.36,0,0,0,116.28,0Z"/><circle class="cls-5" cx="70.56" cy="330.23" r="7.03"/><circle class="cls-5" cx="45.26" cy="290.86" r="7.03"/><circle class="cls-5" cx="91.28" cy="290.86" r="7.03"/><circle class="cls-5" cx="67.37" cy="242.74" r="7.03"/><circle class="cls-5" cx="91.28" cy="224.61" r="7.03"/><circle class="cls-5" cx="105.34" cy="174.77" r="7.03"/><circle class="cls-5" cx="74.4" cy="151.34" r="7.03"/><circle class="cls-5" cx="105.34" cy="99.47" r="7.03"/><circle class="cls-5" cx="105.34" cy="44.32" r="7.03"/><circle class="cls-5" cx="146.76" cy="97.04" r="7.03"/><circle class="cls-5" cx="135.48" cy="141.07" r="7.03"/><circle class="cls-5" cx="163.23" cy="193.67" r="7.03"/><circle class="cls-5" cx="135.48" cy="230.54" r="7.03"/><circle class="cls-5" cx="202.27" cy="246.79" r="7.03"/><circle class="cls-5" cx="139.73" cy="278.8" r="7.03"/><circle class="cls-5" cx="180.5" cy="323.2" r="7.03"/><circle class="cls-5" cx="132.7" cy="361.25" r="7.03"/></g></g></svg>